<mxfile host="app.diagrams.net" modified="2024-04-04T06:06:24.540Z" agent="Mozilla/5.0 (Windows NT 10.0; Win64; x64) AppleWebKit/537.36 (KHTML, like Gecko) Chrome/123.0.0.0 Safari/537.36" etag="rB5ZgdlAlmAf444tbltV" version="24.2.2" type="google">
  <diagram name="Page-1" id="mPHlLV-dtd8rtx97AjwV">
    <mxGraphModel grid="1" page="1" gridSize="10" guides="1" tooltips="1" connect="1" arrows="1" fold="1" pageScale="1" pageWidth="850" pageHeight="1100" math="0" shadow="0">
      <root>
        <mxCell id="0" />
        <mxCell id="1" parent="0" />
        <mxCell id="weUAk9mQgUQjKPLwJQZ1-65" value="" style="rounded=0;whiteSpace=wrap;html=1;" vertex="1" parent="1">
          <mxGeometry x="130" y="-180" width="1100" height="690" as="geometry" />
        </mxCell>
        <mxCell id="weUAk9mQgUQjKPLwJQZ1-37" value="" style="whiteSpace=wrap;html=1;aspect=fixed;" vertex="1" parent="1">
          <mxGeometry x="190" y="-45" width="320" height="320" as="geometry" />
        </mxCell>
        <mxCell id="weUAk9mQgUQjKPLwJQZ1-38" value="Username" style="text;html=1;strokeColor=none;fillColor=none;align=center;verticalAlign=middle;whiteSpace=wrap;rounded=0;" vertex="1" parent="1">
          <mxGeometry x="255.5" y="70" width="60" height="30" as="geometry" />
        </mxCell>
        <mxCell id="weUAk9mQgUQjKPLwJQZ1-39" value="Password" style="text;html=1;strokeColor=none;fillColor=none;align=center;verticalAlign=middle;whiteSpace=wrap;rounded=0;" vertex="1" parent="1">
          <mxGeometry x="255.5" y="100" width="60" height="30" as="geometry" />
        </mxCell>
        <mxCell id="weUAk9mQgUQjKPLwJQZ1-40" value="" style="rounded=0;whiteSpace=wrap;html=1;" vertex="1" parent="1">
          <mxGeometry x="325.5" y="75" width="120" height="20" as="geometry" />
        </mxCell>
        <mxCell id="weUAk9mQgUQjKPLwJQZ1-41" value="" style="rounded=0;whiteSpace=wrap;html=1;" vertex="1" parent="1">
          <mxGeometry x="326.5" y="105" width="120" height="20" as="geometry" />
        </mxCell>
        <mxCell id="weUAk9mQgUQjKPLwJQZ1-42" value="" style="ellipse;whiteSpace=wrap;html=1;aspect=fixed;" vertex="1" parent="1">
          <mxGeometry x="210" y="-30" width="60" height="60" as="geometry" />
        </mxCell>
        <mxCell id="weUAk9mQgUQjKPLwJQZ1-43" value="" style="endArrow=none;html=1;rounded=0;entryX=0;entryY=0;entryDx=0;entryDy=0;exitX=1;exitY=1;exitDx=0;exitDy=0;" edge="1" parent="1" source="weUAk9mQgUQjKPLwJQZ1-42" target="weUAk9mQgUQjKPLwJQZ1-42">
          <mxGeometry width="50" height="50" relative="1" as="geometry">
            <mxPoint x="380" y="140" as="sourcePoint" />
            <mxPoint x="430" y="90" as="targetPoint" />
          </mxGeometry>
        </mxCell>
        <mxCell id="weUAk9mQgUQjKPLwJQZ1-44" value="" style="endArrow=none;html=1;rounded=0;entryX=1;entryY=0;entryDx=0;entryDy=0;exitX=0;exitY=1;exitDx=0;exitDy=0;" edge="1" parent="1" source="weUAk9mQgUQjKPLwJQZ1-42" target="weUAk9mQgUQjKPLwJQZ1-42">
          <mxGeometry width="50" height="50" relative="1" as="geometry">
            <mxPoint x="380" y="140" as="sourcePoint" />
            <mxPoint x="430" y="90" as="targetPoint" />
          </mxGeometry>
        </mxCell>
        <mxCell id="weUAk9mQgUQjKPLwJQZ1-49" style="edgeStyle=orthogonalEdgeStyle;rounded=0;orthogonalLoop=1;jettySize=auto;html=1;entryX=0.007;entryY=0.773;entryDx=0;entryDy=0;entryPerimeter=0;" edge="1" parent="1" source="weUAk9mQgUQjKPLwJQZ1-45" target="weUAk9mQgUQjKPLwJQZ1-50">
          <mxGeometry relative="1" as="geometry">
            <mxPoint x="620" y="234" as="targetPoint" />
          </mxGeometry>
        </mxCell>
        <mxCell id="weUAk9mQgUQjKPLwJQZ1-45" value="Login" style="rounded=1;whiteSpace=wrap;html=1;" vertex="1" parent="1">
          <mxGeometry x="300" y="219" width="80" height="30" as="geometry" />
        </mxCell>
        <mxCell id="weUAk9mQgUQjKPLwJQZ1-46" value="Guest Mode" style="rounded=1;whiteSpace=wrap;html=1;" vertex="1" parent="1">
          <mxGeometry x="375" y="-23" width="120" height="40" as="geometry" />
        </mxCell>
        <mxCell id="weUAk9mQgUQjKPLwJQZ1-47" value="" style="rounded=1;whiteSpace=wrap;html=1;" vertex="1" parent="1">
          <mxGeometry x="360" y="130" width="120" height="30" as="geometry" />
        </mxCell>
        <mxCell id="weUAk9mQgUQjKPLwJQZ1-48" value="Forgot Password?" style="text;html=1;strokeColor=none;fillColor=none;align=center;verticalAlign=middle;whiteSpace=wrap;rounded=0;" vertex="1" parent="1">
          <mxGeometry x="367.5" y="130" width="105" height="30" as="geometry" />
        </mxCell>
        <mxCell id="weUAk9mQgUQjKPLwJQZ1-50" value="" style="whiteSpace=wrap;html=1;aspect=fixed;strokeWidth=3;" vertex="1" parent="1">
          <mxGeometry x="650" y="-45" width="360" height="360" as="geometry" />
        </mxCell>
        <mxCell id="weUAk9mQgUQjKPLwJQZ1-51" value="&amp;nbsp; &amp;nbsp;&lt;font style=&quot;font-size: 16px;&quot;&gt;Student Dashboard&lt;/font&gt;" style="rounded=0;whiteSpace=wrap;html=1;strokeWidth=3;align=left;" vertex="1" parent="1">
          <mxGeometry x="650" y="-45" width="360" height="40" as="geometry" />
        </mxCell>
        <mxCell id="weUAk9mQgUQjKPLwJQZ1-52" value="" style="rounded=0;whiteSpace=wrap;html=1;strokeWidth=2;" vertex="1" parent="1">
          <mxGeometry x="651" y="-4" width="159" height="319" as="geometry" />
        </mxCell>
        <mxCell id="weUAk9mQgUQjKPLwJQZ1-53" value="" style="rounded=1;whiteSpace=wrap;html=1;" vertex="1" parent="1">
          <mxGeometry x="665.75" y="15" width="129.5" height="30" as="geometry" />
        </mxCell>
        <mxCell id="weUAk9mQgUQjKPLwJQZ1-54" value="" style="rounded=1;whiteSpace=wrap;html=1;" vertex="1" parent="1">
          <mxGeometry x="665.75" y="65" width="129.5" height="30" as="geometry" />
        </mxCell>
        <mxCell id="weUAk9mQgUQjKPLwJQZ1-55" value="Live Sessions" style="rounded=1;whiteSpace=wrap;html=1;" vertex="1" parent="1">
          <mxGeometry x="663.75" y="125" width="134.25" height="30" as="geometry" />
        </mxCell>
        <mxCell id="weUAk9mQgUQjKPLwJQZ1-57" value="" style="rounded=0;whiteSpace=wrap;html=1;" vertex="1" parent="1">
          <mxGeometry x="678.38" y="79" width="104.25" height="1" as="geometry" />
        </mxCell>
        <mxCell id="weUAk9mQgUQjKPLwJQZ1-58" value="" style="rounded=1;whiteSpace=wrap;html=1;" vertex="1" parent="1">
          <mxGeometry x="665.75" y="65" width="129.5" height="30" as="geometry" />
        </mxCell>
        <mxCell id="weUAk9mQgUQjKPLwJQZ1-60" value="" style="whiteSpace=wrap;html=1;aspect=fixed;" vertex="1" parent="1">
          <mxGeometry x="830" y="45" width="150" height="150" as="geometry" />
        </mxCell>
        <mxCell id="weUAk9mQgUQjKPLwJQZ1-61" value="" style="endArrow=none;html=1;rounded=0;entryX=1;entryY=0;entryDx=0;entryDy=0;exitX=0;exitY=1;exitDx=0;exitDy=0;" edge="1" parent="1" source="weUAk9mQgUQjKPLwJQZ1-60" target="weUAk9mQgUQjKPLwJQZ1-60">
          <mxGeometry width="50" height="50" relative="1" as="geometry">
            <mxPoint x="840" y="135" as="sourcePoint" />
            <mxPoint x="890" y="85" as="targetPoint" />
          </mxGeometry>
        </mxCell>
        <mxCell id="weUAk9mQgUQjKPLwJQZ1-62" value="" style="endArrow=none;html=1;rounded=0;entryX=0;entryY=0;entryDx=0;entryDy=0;exitX=1;exitY=1;exitDx=0;exitDy=0;" edge="1" parent="1" source="weUAk9mQgUQjKPLwJQZ1-60" target="weUAk9mQgUQjKPLwJQZ1-60">
          <mxGeometry width="50" height="50" relative="1" as="geometry">
            <mxPoint x="840" y="135" as="sourcePoint" />
            <mxPoint x="890" y="85" as="targetPoint" />
          </mxGeometry>
        </mxCell>
        <mxCell id="weUAk9mQgUQjKPLwJQZ1-63" value="Explore AR Field Trips" style="text;html=1;align=center;verticalAlign=middle;whiteSpace=wrap;rounded=0;" vertex="1" parent="1">
          <mxGeometry x="663.75" y="64.5" width="136.25" height="30" as="geometry" />
        </mxCell>
        <mxCell id="weUAk9mQgUQjKPLwJQZ1-66" value="LogIn" style="text;html=1;align=center;verticalAlign=middle;whiteSpace=wrap;rounded=0;fontStyle=1" vertex="1" parent="1">
          <mxGeometry x="130" y="-240" width="80" height="60" as="geometry" />
        </mxCell>
        <mxCell id="weUAk9mQgUQjKPLwJQZ1-69" value="" style="endArrow=none;html=1;rounded=0;" edge="1" parent="1">
          <mxGeometry width="50" height="50" relative="1" as="geometry">
            <mxPoint x="780" y="30" as="sourcePoint" />
            <mxPoint x="680" y="30" as="targetPoint" />
          </mxGeometry>
        </mxCell>
      </root>
    </mxGraphModel>
  </diagram>
</mxfile>
